<svg id="visual" viewBox="0 0 1920 1080" width="1920" height="1080" xmlns="http://www.w3.org/2000/svg" xmlns:xlink="http://www.w3.org/1999/xlink" version="1.1">
  <path d="M0 580L45.7 591C91.3 602 182.7 624 274.2 616.2C365.7 608.3 457.3 570.7 548.8 540.5C640.3 510.3 731.7 487.7 823 517.7C914.3 547.7 1005.7 630.3 1097 662C1188.3 693.7 1279.7 674.3 1371.2 655.2C1462.7 636 1554.3 617 1645.8 622.3C1737.3 627.7 1828.7 657.3 1874.3 672.2L1920 687L1920 1081L1874.3 1081C1828.7 1081 1737.3 1081 1645.8 1081C1554.3 1081 1462.7 1081 1371.2 1081C1279.7 1081 1188.3 1081 1097 1081C1005.7 1081 914.3 1081 823 1081C731.7 1081 640.3 1081 548.8 1081C457.3 1081 365.7 1081 274.2 1081C182.7 1081 91.3 1081 45.7 1081L0 1081Z" fill="#00ff87"></path>
  <path d="M0 929L45.7 910.2C91.3 891.3 182.7 853.7 274.2 840C365.7 826.3 457.3 836.7 548.8 839C640.3 841.3 731.7 835.7 823 814.8C914.3 794 1005.7 758 1097 775.5C1188.3 793 1279.7 864 1371.2 890.3C1462.7 916.7 1554.3 898.3 1645.8 869.2C1737.3 840 1828.7 800 1874.3 780L1920 760L1920 1081L1874.3 1081C1828.7 1081 1737.3 1081 1645.8 1081C1554.3 1081 1462.7 1081 1371.2 1081C1279.7 1081 1188.3 1081 1097 1081C1005.7 1081 914.3 1081 823 1081C731.7 1081 640.3 1081 548.8 1081C457.3 1081 365.7 1081 274.2 1081C182.7 1081 91.3 1081 45.7 1081L0 1081Z" fill="#e90052"></path>
</svg>